HIERARCHY
ROOT hip
{
  OFFSET 0 0 0
  CHANNELS 6 Xposition Yposition Zposition Zrotation Yrotation Xrotation
  JOINT abdomen
  {
    OFFSET 0 20.6881 -0.73152
    CHANNELS 3 Zrotation Xrotation Yrotation
    JOINT chest
    {
      OFFSET 0 11.7043 -0.48768
      CHANNELS 3 Zrotation Xrotation Yrotation
      JOINT neck
      {
        OFFSET 0 22.1894 -2.19456
        CHANNELS 3 Zrotation Xrotation Yrotation
        JOINT head
        {
          OFFSET -0.24384 7.07133 1.2192
          CHANNELS 3 Zrotation Xrotation Yrotation
          JOINT leftEye
          {
            OFFSET 4.14528 8.04674 8.04672
            CHANNELS 3 Zrotation Xrotation Yrotation
            End Site
            {
              OFFSET 1 0 0
            }
          }
          JOINT rightEye
          {
            OFFSET -3.6576 8.04674 8.04672
            CHANNELS 3 Zrotation Xrotation Yrotation
            End Site
            {
              OFFSET 1 0 0
            }
          }
        }
      }
      JOINT rCollar
      {
        OFFSET -2.68224 19.2634 -4.8768
        CHANNELS 3 Zrotation Xrotation Yrotation
        JOINT rShldr
        {
          OFFSET -8.77824 -1.95073 1.46304
          CHANNELS 3 Zrotation Xrotation Yrotation
          JOINT rForeArm
          {
            OFFSET -28.1742 -1.7115 0.48768
            CHANNELS 3 Zrotation Xrotation Yrotation
            JOINT rHand
            {
              OFFSET -22.5879 0.773209 7.07136
              CHANNELS 3 Zrotation Xrotation Yrotation
              JOINT rThumb1
              {
                OFFSET -1.2192 -0.487915 3.41376
                CHANNELS 3 Zrotation Xrotation Yrotation
                JOINT rThumb2
                {
                  OFFSET -3.37035 -0.52449 3.41376
                  CHANNELS 3 Zrotation Xrotation Yrotation
                  End Site
                  {
                    OFFSET -1.78271 -1.18214 1.43049
                  }
                }
              }
              JOINT rIndex1
              {
                OFFSET -7.75947 0.938293 5.60832
                CHANNELS 3 Zrotation Xrotation Yrotation
                JOINT rIndex2
                {
                  OFFSET -2.54057 -0.884171 1.56538
                  CHANNELS 3 Zrotation Xrotation Yrotation
                  End Site
                  {
                    OFFSET -1.62519 -0.234802 1.16502
                  }
                }
              }
              JOINT rMid1
              {
                OFFSET -8.24714 1.18213 3.41376
                CHANNELS 3 Zrotation Xrotation Yrotation
                JOINT rMid2
                {
                  OFFSET -3.10165 -0.590103 1.0647
                  CHANNELS 3 Zrotation Xrotation Yrotation
                  End Site
                  {
                    OFFSET -2.48547 -0.328903 0.83742
                  }
                }
              }
              JOINT rRing1
              {
                OFFSET -8.82822 0.546677 1.51678
                CHANNELS 3 Zrotation Xrotation Yrotation
                JOINT rRing2
                {
                  OFFSET -2.60934 -0.819778 -0.0198488
                  CHANNELS 3 Zrotation Xrotation Yrotation
                  End Site
                  {
                    OFFSET -2.33842 -0.294052 0.168128
                  }
                }
              }
              JOINT rPinky1
              {
                OFFSET -8.27202 -0.0477905 -0.4584
                CHANNELS 3 Zrotation Xrotation Yrotation
                JOINT rPinky2
                {
                  OFFSET -1.82734 -0.647385 -0.700984
                  CHANNELS 3 Zrotation Xrotation Yrotation
                  End Site
                  {
                    OFFSET -1.69225 -0.51767 -0.607171
                  }
                }
              }
            }
          }
        }
      }
      JOINT lCollar
      {
        OFFSET 2.68224 19.2634 -4.8768
        CHANNELS 3 Zrotation Xrotation Yrotation
        JOINT lShldr
        {
          OFFSET 8.77824 -1.95073 1.46304
          CHANNELS 3 Zrotation Xrotation Yrotation
          JOINT lForeArm
          {
            OFFSET 28.1742 -1.7115 0.48768
            CHANNELS 3 Zrotation Xrotation Yrotation
            JOINT lHand
            {
              OFFSET 22.5879 0.773209 7.07136
              CHANNELS 3 Zrotation Xrotation Yrotation
              JOINT lThumb1
              {
                OFFSET 1.2192 -0.487915 3.41376
                CHANNELS 3 Zrotation Xrotation Yrotation
                JOINT lThumb2
                {
                  OFFSET 3.37035 -0.52449 3.41376
                  CHANNELS 3 Zrotation Xrotation Yrotation
                  End Site
                  {
                    OFFSET 1.78271 -1.18214 1.43049
                  }
                }
              }
              JOINT lIndex1
              {
                OFFSET 7.75947 0.938293 5.60832
                CHANNELS 3 Zrotation Xrotation Yrotation
                JOINT lIndex2
                {
                  OFFSET 2.54057 -0.884171 1.56538
                  CHANNELS 3 Zrotation Xrotation Yrotation
                  End Site
                  {
                    OFFSET 1.62519 -0.234802 1.16502
                  }
                }
              }
              JOINT lMid1
              {
                OFFSET 8.24714 1.18213 3.41376
                CHANNELS 3 Zrotation Xrotation Yrotation
                JOINT lMid2
                {
                  OFFSET 3.10165 -0.590103 1.0647
                  CHANNELS 3 Zrotation Xrotation Yrotation
                  End Site
                  {
                    OFFSET 2.48547 -0.328903 0.83742
                  }
                }
              }
              JOINT lRing1
              {
                OFFSET 8.82822 0.546677 1.51678
                CHANNELS 3 Zrotation Xrotation Yrotation
                JOINT lRing2
                {
                  OFFSET 2.60934 -0.819778 -0.0198488
                  CHANNELS 3 Zrotation Xrotation Yrotation
                  End Site
                  {
                    OFFSET 2.33842 -0.294052 0.168128
                  }
                }
              }
              JOINT lPinky1
              {
                OFFSET 8.27202 -0.0477905 -0.4584
                CHANNELS 3 Zrotation Xrotation Yrotation
                JOINT lPinky2
                {
                  OFFSET 1.82734 -0.647385 -0.700984
                  CHANNELS 3 Zrotation Xrotation Yrotation
                  End Site
                  {
                    OFFSET 1.69225 -0.51767 -0.607171
                  }
                }
              }
            }
          }
        }
      }
    }
  }
  JOINT rButtock
  {
    OFFSET -8.77824 4.35084 1.2192
    CHANNELS 3 Zrotation Xrotation Yrotation
    JOINT rThigh
    {
      OFFSET 0 -1.70687 -2.19456
      CHANNELS 3 Zrotation Xrotation Yrotation
      JOINT rShin
      {
        OFFSET 0 -36.8199 0.73152
        CHANNELS 3 Zrotation Xrotation Yrotation
        JOINT rFoot
        {
          OFFSET 0.73152 -45.1104 -5.12064
          CHANNELS 3 Zrotation Xrotation Yrotation
          End Site
          {
            OFFSET -1.1221 -3.69964 12.103
          }
        }
      }
    }
  }
  JOINT lButtock
  {
    OFFSET 8.77824 4.35084 1.2192
    CHANNELS 3 Zrotation Xrotation Yrotation
    JOINT lThigh
    {
      OFFSET 0 -1.70687 -2.19456
      CHANNELS 3 Zrotation Xrotation Yrotation
      JOINT lShin
      {
        OFFSET 0 -36.8199 0.73152
        CHANNELS 3 Zrotation Xrotation Yrotation
        JOINT lFoot
        {
          OFFSET -0.73152 -45.1104 -5.12064
          CHANNELS 3 Zrotation Xrotation Yrotation
          End Site
          {
            OFFSET 1.1221 -3.69964 12.103
          }
        }
      }
    }
  }
}
MOTION
Frames:	8
Frame Time:	0.00833333
7.39266 69.2692 -88.8879 -1.0345 -1.8116 33.5719 2.85051 27.7503 0.591939 0.798552 -13.1578 0.43741 -8.66196 -13.3908 -4.78768 12.7337 -30.436 -2.06838 -0.0 0.0 0.0 -0.0 0.0 0.0 -6.79064e-14 -3.90592e-14 1.19267e-14 71.081 22.2795 18.7194 -23.7881 -18.6775 49.2453 -0.222871 -13.2036 -1.89062 -1.18835e-10 4.90631e-10 7.00388e-11 -2.04664e-10 8.45498e-10 1.20678e-10 -1.18831e-10 4.90635e-10 7.00334e-11 7.73091 5.47488 0.417314 -1.18833e-10 4.90633e-10 7.00425e-11 2.90554 0.965183 0.102902 -1.18828e-10 4.90632e-10 7.00392e-11 10.2786 0.731801 0.0259123 -1.18839e-10 4.90634e-10 7.00521e-11 2.22167 -0.733487 -0.20892 -6.78866e-14 -3.90638e-14 1.17698e-14 -75.7294 20.2901 -20.5226 22.845 -17.057 -46.3942 0.0251562 -4.46048 0.62824 3.07084e-10 -1.04668e-11 1.00338e-10 5.28483e-10 -2.22644e-11 1.75047e-10 3.07072e-10 -1.04692e-11 1.00346e-10 -7.73091 5.47488 -0.417314 3.07078e-10 -1.04708e-11 1.00333e-10 -2.90554 0.965183 -0.102902 3.07065e-10 -1.0471e-11 1.00334e-10 -10.2786 0.731801 -0.0259123 3.07082e-10 -1.04646e-11 1.00335e-10 -2.22167 -0.733487 0.20892 -2.03217e-16 0.0 -3.88251e-19 1.01741 -74.5228 0.856931 -1.82947 69.1735 2.59813 -5.54419 -19.2569 -12.071 2.03217e-16 0.0 3.88251e-19 7.12181 -73.7519 7.79708 1.78167 68.5668 -2.45005 3.07832 -23.9658 5.57868
7.39107 68.7738 -88.3991 -1.0315 -2.4032 33.2279 2.86135 27.7667 0.639513 0.660567 -13.0898 0.434829 -8.53711 -13.5771 -4.82535 12.8728 -30.6943 -2.12172 -0.0 0.0 0.0 -0.0 0.0 0.0 -6.7584e-14 -5.08846e-14 -7.45443e-15 71.0156 22.0271 18.4374 -24.2566 -19.5842 50.4315 -0.236774 -13.7254 -1.96714 -3.82709e-10 8.76209e-10 8.2218e-10 -6.70185e-10 1.52465e-09 1.41736e-09 -3.82705e-10 8.76213e-10 8.22173e-10 7.73091 5.47488 0.417314 -3.82706e-10 8.76211e-10 8.22183e-10 2.90554 0.965183 0.102902 -3.82701e-10 8.76211e-10 8.22179e-10 10.2786 0.731801 0.0259123 -3.82712e-10 8.76212e-10 8.22192e-10 2.22167 -0.733487 -0.20892 -6.7594e-14 -5.08939e-14 -7.65321e-15 -75.4798 20.3213 -20.814 23.6426 -18.4443 -48.4982 0.0303159 -4.96389 0.699398 7.22694e-10 7.20187e-10 -4.22285e-10 1.2494e-09 1.2454e-09 -7.27324e-10 7.2268e-10 7.20183e-10 -4.22276e-10 -7.73091 5.47488 -0.417314 7.22685e-10 7.2018e-10 -4.22292e-10 -2.90554 0.965183 -0.102902 7.22672e-10 7.20181e-10 -4.2229e-10 -10.2786 0.731801 -0.0259123 7.22691e-10 7.20188e-10 -4.22289e-10 -2.22167 -0.733487 0.20892 -2.03217e-16 0.0 -3.88251e-19 0.958941 -74.2796 0.687755 -1.95146 70.1034 2.74194 -5.87876 -19.6409 -12.636 2.03217e-16 0.0 3.88251e-19 7.52278 -73.4469 8.29304 1.89998 69.4821 -2.57807 3.16221 -24.5944 5.64119
7.30692 68.2848 -87.8518 -1.257 -2.4557 32.89 2.86967 27.6584 0.783261 0.604959 -12.9868 0.467361 -8.47121 -13.6447 -4.87287 12.9872 -31.0733 -2.17545 -0.0 0.0 0.0 -0.0 0.0 0.0 -4.73894e-14 -4.71313e-14 -3.84963e-14 70.8481 21.901 17.78 -24.946 -21.0238 52.4574 -0.277557 -14.9989 -2.15609 -4.88966e-10 1.05366e-09 2.12864e-09 -8.72075e-10 1.86612e-09 3.67175e-09 -4.88964e-10 1.05366e-09 2.12863e-09 7.73091 5.47488 0.417314 -4.88964e-10 1.05366e-09 2.12864e-09 2.90554 0.965183 0.102902 -4.88959e-10 1.05366e-09 2.12864e-09 10.2786 0.731801 0.0259123 -4.88971e-10 1.05366e-09 2.12865e-09 2.22167 -0.733487 -0.20892 -4.74308e-14 -4.71431e-14 -3.87156e-14 -75.0616 20.5668 -21.1819 24.5529 -20.2129 -51.0865 0.0381463 -5.68077 0.800849 1.24326e-09 1.92883e-09 -1.31941e-09 2.15388e-09 3.34874e-09 -2.27478e-09 1.24325e-09 1.92883e-09 -1.3194e-09 -7.73091 5.47488 -0.417314 1.24325e-09 1.92882e-09 -1.31942e-09 -2.90554 0.965183 -0.102902 1.24324e-09 1.92883e-09 -1.31942e-09 -10.2786 0.731801 -0.0259123 1.24326e-09 1.92883e-09 -1.31942e-09 -2.22167 -0.733487 0.20892 -2.03217e-16 0.0 -3.88251e-19 1.33069 -74.024 0.906351 -2.08426 71.0382 2.90051 -6.29662 -19.9775 -13.3824 2.03217e-16 0.0 3.88251e-19 8.19774 -73.1391 8.99566 2.02827 70.3894 -2.71557 3.2461 -25.1771 5.70817
7.22796 67.9846 -87.2678 -1.37 -2.3648 32.5612 2.8845 27.4609 0.987479 0.600035 -12.8549 0.522298 -8.43778 -13.6381 -4.93099 13.0747 -31.4928 -2.24716 -0.0 0.0 0.0 -0.0 0.0 0.0 -1.33918e-14 -3.35883e-14 -7.87343e-14 70.611 21.8713 16.8251 -25.6788 -22.7108 55.2316 -0.345845 -16.728 -2.41782 -4.96492e-10 1.09997e-09 3.83453e-09 -9.09741e-10 1.99645e-09 6.61605e-09 -4.96493e-10 1.09997e-09 3.83452e-09 7.73091 5.47488 0.417314 -4.96491e-10 1.09997e-09 3.83453e-09 2.90554 0.965183 0.102902 -4.96485e-10 1.09997e-09 3.83453e-09 10.2786 0.731801 0.0259123 -4.96498e-10 1.09997e-09 3.83454e-09 2.22167 -0.733487 -0.20892 -1.34698e-14 -3.36017e-14 -7.89672e-14 -74.4923 21.0058 -21.5878 25.4318 -22.1285 -54.2177 0.0513604 -6.60323 0.931905 1.84745e-09 3.4938e-09 -2.49537e-09 3.20442e-09 6.07459e-09 -4.3027e-09 1.84743e-09 3.49379e-09 -2.49534e-09 -7.73091 5.47488 -0.417314 1.84744e-09 3.49379e-09 -2.49537e-09 -2.90554 0.965183 -0.102902 1.84743e-09 3.4938e-09 -2.49537e-09 -10.2786 0.731801 -0.0259123 1.84745e-09 3.4938e-09 -2.49537e-09 -2.22167 -0.733487 0.20892 -2.03217e-16 0.0 -3.88251e-19 1.98268 -73.7097 1.3721 -2.22821 71.9619 3.07349 -6.78968 -20.2738 -14.2862 2.03217e-16 0.0 3.88251e-19 9.03243 -72.7819 9.80988 2.16676 71.2826 -2.86279 3.32645 -25.7412 5.76873
7.18821 67.6477 -86.6316 -1.297 -2.3934 32.1524 2.91697 27.2081 1.17065 0.629806 -12.7279 0.576293 -8.43279 -13.5939 -4.98884 13.1473 -31.7914 -2.32471 -0.0 0.0 0.0 -0.0 0.0 0.0 2.00612e-14 -1.99464e-14 -1.10355e-13 70.2896 21.8099 15.7503 -26.359 -24.4655 58.3247 -0.42641 -18.3762 -2.67394 -4.58697e-10 1.04297e-09 5.01679e-09 -8.62311e-10 1.93179e-09 8.65639e-09 -4.587e-10 1.04297e-09 5.01677e-09 7.73091 5.47488 0.417314 -4.58697e-10 1.04297e-09 5.01679e-09 2.90554 0.965183 0.102902 -4.58691e-10 1.04297e-09 5.01679e-09 10.2786 0.731801 0.0259123 -4.58704e-10 1.04297e-09 5.0168e-09 2.22167 -0.733487 -0.20892 1.99549e-14 -1.99605e-14 -1.10596e-13 -73.7073 21.4342 -22.0681 26.1994 -24.0257 -57.5425 0.0669273 -7.4408 1.05153 2.23871e-09 4.44226e-09 -3.34656e-09 3.88556e-09 7.72858e-09 -5.77033e-09 2.2387e-09 4.44225e-09 -3.34654e-09 -7.73091 5.47488 -0.417314 2.2387e-09 4.44225e-09 -3.34656e-09 -2.90554 0.965183 -0.102902 2.2387e-09 4.44226e-09 -3.34656e-09 -10.2786 0.731801 -0.0259123 2.23871e-09 4.44225e-09 -3.34657e-09 -2.22167 -0.733487 0.20892 -2.03217e-16 0.0 -3.88251e-19 2.59877 -73.231 1.81279 -2.36753 72.7744 3.24262 -7.3053 -20.5731 -15.215 2.03217e-16 0.0 3.88251e-19 9.64738 -72.3027 10.3679 2.30275 72.079 -3.00548 3.37817 -26.2639 5.78093
7.07997 67.3405 -85.9471 -1.3414 -2.1915 31.5946 2.97626 26.9345 1.25216 0.678603 -12.6397 0.606063 -8.45236 -13.5486 -5.03558 13.2183 -31.8083 -2.39514 -0.0 0.0 0.0 -0.0 0.0 0.0 3.86221e-14 -1.58962e-14 -1.15544e-13 69.8616 21.5912 14.7364 -26.9755 -26.2567 61.2899 -0.485444 -19.4083 -2.83817 -4.28993e-10 9.1045e-10 4.75235e-09 -8.08913e-10 1.68831e-09 8.19888e-09 -4.28996e-10 9.10451e-10 4.75233e-09 7.73091 5.47488 0.417314 -4.28994e-10 9.10453e-10 4.75235e-09 2.90554 0.965183 0.102902 -4.28987e-10 9.10453e-10 4.75235e-09 10.2786 0.731801 0.0259123 -4.29e-10 9.10451e-10 4.75236e-09 2.22167 -0.733487 -0.20892 3.8509e-14 -1.59102e-14 -1.15792e-13 -72.6481 21.6491 -22.6549 26.8597 -25.8804 -60.6896 0.0772226 -7.90313 1.11788 2.12051e-09 3.80136e-09 -3.26943e-09 3.68188e-09 6.61635e-09 -5.63693e-09 2.1205e-09 3.80135e-09 -3.2694e-09 -7.73091 5.47488 -0.417314 2.12051e-09 3.80135e-09 -3.26943e-09 -2.90554 0.965183 -0.102902 2.1205e-09 3.80136e-09 -3.26943e-09 -10.2786 0.731801 -0.0259123 2.12052e-09 3.80135e-09 -3.26944e-09 -2.22167 -0.733487 0.20892 -2.03217e-16 0.0 -3.88251e-19 2.88154 -72.4842 1.97437 -2.47872 73.3752 3.38199 -7.79019 -20.9219 -16.0367 2.03217e-16 0.0 3.88251e-19 9.69923 -71.6324 10.337 2.41818 72.6961 -3.12405 3.3746 -26.7222 5.70207
6.98389 67.1175 -85.2514 -1.2548 -1.7973 30.9788 3.09964 26.6857 1.17762 0.73964 -12.6078 0.598331 -8.51296 -13.4915 -5.06881 13.3113 -31.4959 -2.44443 -0.0 0.0 0.0 -0.0 0.0 0.0 3.43371e-14 -2.78239e-14 -7.6279e-14 69.3154 21.172 13.8439 -27.5315 -28.2117 64.216 -0.502421 -19.6578 -2.87886 -4.16396e-10 7.13467e-10 1.93721e-09 -7.4998e-10 1.24593e-09 3.33702e-09 -4.16399e-10 7.13469e-10 1.93719e-09 7.73091 5.47488 0.417314 -4.164e-10 7.13472e-10 1.93721e-09 2.90554 0.965183 0.102902 -4.1639e-10 7.1347e-10 1.93721e-09 10.2786 0.731801 0.0259123 -4.16402e-10 7.13467e-10 1.93722e-09 2.22167 -0.733487 -0.20892 3.42583e-14 -2.78364e-14 -7.65298e-14 -71.2412 21.6432 -23.4634 27.4321 -27.8273 -63.708 0.0747834 -7.77155 1.09905 1.09053e-09 3.29425e-10 -1.55937e-09 1.89479e-09 5.7529e-10 -2.68704e-09 1.09052e-09 3.29422e-10 -1.55934e-09 -7.73091 5.47488 -0.417314 1.09053e-09 3.29417e-10 -1.55937e-09 -2.90554 0.965183 -0.102902 1.09052e-09 3.29426e-10 -1.55937e-09 -10.2786 0.731801 -0.0259123 1.09054e-09 3.29422e-10 -1.55938e-09 -2.22167 -0.733487 0.20892 -2.03217e-16 0.0 -3.88251e-19 2.70211 -71.3985 1.73527 -2.55236 73.7703 3.48461 -8.27278 -21.3785 -16.7788 2.03217e-16 0.0 3.88251e-19 9.01899 -70.7338 9.52215 2.51001 73.1478 -3.21428 3.28737 -27.1371 5.48019
6.90123 66.9995 -84.4783 -1.1613 -1.3084 30.33 3.26832 26.4311 1.00203 0.822275 -12.6113 0.567897 -8.61077 -13.41 -5.09416 13.4138 -30.9418 -2.48249 -0.0 0.0 0.0 -0.0 0.0 0.0 1.62343e-14 -4.92939e-14 -6.48535e-15 68.6544 20.6212 12.977 -27.9576 -30.2606 67.4146 -0.490598 -19.4187 -2.8412 -3.94164e-10 4.35976e-10 -2.65037e-09 -6.50201e-10 6.0417e-10 -4.58529e-09 -3.94163e-10 4.35981e-10 -2.65039e-09 7.73091 5.47488 0.417314 -3.9417e-10 4.35985e-10 -2.65037e-09 2.90554 0.965183 0.102902 -3.94156e-10 4.3598e-10 -2.65037e-09 10.2786 0.731801 0.0259123 -3.94168e-10 4.35976e-10 -2.65036e-09 2.22167 -0.733487 -0.20892 1.62184e-14 -4.93036e-14 -6.73383e-15 -69.5438 21.5071 -24.4373 27.8735 -29.8441 -66.8636 0.0644719 -7.24801 1.02411 -5.85333e-10 -5.12728e-09 1.2805e-09 -1.01375e-09 -8.92068e-09 2.21162e-09 -5.85339e-10 -5.12728e-09 1.28052e-09 -7.73091 5.47488 -0.417314 -5.85335e-10 -5.12728e-09 1.2805e-09 -2.90554 0.965183 -0.102902 -5.85342e-10 -5.12728e-09 1.2805e-09 -10.2786 0.731801 -0.0259123 -5.85328e-10 -5.12728e-09 1.2805e-09 -2.22167 -0.733487 0.20892 -2.03217e-16 0.0 -3.88251e-19 2.2986 -70.0432 1.30927 -2.59124 74.0024 3.55362 -8.7703 -21.9028 -17.4931 2.03217e-16 0.0 3.88251e-19 7.95013 -69.6432 8.26535 2.57922 73.4662 -3.27827 3.13385 -27.5115 5.14958
